<svg xmlns="http://www.w3.org/2000/svg" viewBox="0 0 512 512" fill="#fff">
    <path
        d="M352.5 482H159.5c-8.3 0-15 6.7-15 15 0 8.3 6.7 15 15 15h193c8.3 0 15-6.7 15-15C367.5 488.7 360.8 482 352.5 482z" />
    <path
        d="M465.1 270.8c-8.3 0-15-6.7-15-15 0-8.3 6.7-15 15-15l46.7 0c-3.3-57.8-25.8-112-64.3-155.2l-33 33c-2.9 2.9-6.8 4.4-10.6 4.4 -3.8 0-7.7-1.5-10.6-4.4 -5.9-5.9-5.9-15.4 0-21.2l33-33C383 25.8 328.8 3.3 271 0v46.7c0 8.3-6.7 15-15 15 -8.3 0-15-6.7-15-15V0C183.2 3.3 129 25.8 85.8 64.3l33 33c5.9 5.9 5.9 15.4 0 21.2 -2.9 2.9-6.8 4.4-10.6 4.4 -3.8 0-7.7-1.5-10.6-4.4l-33-33C26 128.8 3.5 183 0.2 240.8l46.7 0c8.3 0 15 6.7 15 15 0 8.3-6.7 15-15 15L0.2 270.8c2.9 50.4 20.3 98.1 50.8 138.7 2.8 3.8 7.3 6 12 6H449c4.7 0 9.2-2.2 12-6 30.5-40.6 47.9-88.3 50.8-138.7L465.1 270.8zM350.1 182.9l-40.1 40.1c5.8 9.6 9.2 20.8 9.2 32.8 0 34.9-28.4 63.3-63.3 63.3 -34.9 0-63.3-28.4-63.3-63.3 0-34.9 28.4-63.3 63.3-63.3 12 0 23.2 3.4 32.8 9.2l40.1-40.1c5.9-5.9 15.4-5.9 21.2 0C356 167.5 356 177 350.1 182.9z" />
    </svg>