<?xml version="1.0" encoding="utf-8"?>
<!-- Generator: Adobe Illustrator 27.4.0, SVG Export Plug-In . SVG Version: 6.00 Build 0)  -->
<svg version="1.1" id="Layer_1" xmlns="http://www.w3.org/2000/svg" xmlns:xlink="http://www.w3.org/1999/xlink" x="0px" y="0px"
	 viewBox="0 0 443.3 452.6" style="enable-background:new 0 0 443.3 452.6;" xml:space="preserve">
<style type="text/css">
	.st0{fill:#fff;}
</style>
<g id="TrueLayer_Logo_-_Original">
	<g id="Original_Horizontal">
		<path class="st0" d="M23.9,344.4l181.7,103.5c15.4,9.2,22.4,2.7,28.7-0.1l192.7-110.6c6.9-4.4,11.6-8.1,11.6-15.8
			s-5.8-11.6-9.3-13.8L377.4,273l49.3-28.6c8-4,16.5-13,16.5-24.3v-76.2c0-19.8-11.3-26-16.8-29C426,114.6,237.4,5.7,237.4,5.7
			C221-5.1,207.6,2,202.1,5.7L12.4,116c-8.5,5.8-11.2,12-11.2,18.3c0.1,9.5,9.9,16.7,11.2,17.6l49.3,29.3L9.4,213
			c-8.2,5-8.8,14.3-8.8,14.3l0,0C0,231.5,0,301.6,0,301.6C0,320,1.7,332,23.9,344.4z M404.5,322.9L219.8,426.3L41.2,325.7l56-32.1
			l115.9,66.2c3.5,2.5,9.8,2.3,13.1,0.5l125-72.3L404.5,322.9z M420.2,212.6l-49.9-30.7l49.7-29.6L420.2,212.6z M233.5,34.3
			l170.1,99.2l-55.8,34.1L233.4,98.2L233.5,34.3z M219.7,120l103.2,62.6l-103.2,59.5c0,0-0.1,0-0.1,0l-105.5-60.9L219.6,120H219.7z
			 M32.8,134.2L206.3,34v64.2l-120.4,68L32.8,134.2z M87.6,196.6l125.3,72.3c4.1,2.3,9.1,2.3,13.2,0.1l120.4-72.1l54.4,33
			L219.6,333.4L35.1,227.1L87.6,196.6z M24.5,251.2L73,278.9L24.5,307V251.2z"/>
	</g>
</g>
</svg>
